<?xml version="1.0" encoding="utf-8"?>
<svg width="638px" height="638.00024px" viewBox="0 0 638 638.00024" version="1.1" xmlns:xlink="http://www.w3.org/1999/xlink" xmlns="http://www.w3.org/2000/svg">
  <defs>
    <path d="M0 0L638 0L638 638L0 638L0 0Z" id="path_1" />
    <clipPath id="mask_1">
      <use xlink:href="#path_1" />
    </clipPath>
  </defs>
  <g id="Code-typing-amico">
    <path d="M0 0L638 0L638 638L0 638L0 0Z" id="Background" fill="#FFFFFF" fill-opacity="0" fill-rule="evenodd" stroke="none" />
    <path d="M35.0901 457.433C35.0901 366.906 162.201 293.518 319 293.518C475.799 293.518 602.91 366.906 602.91 457.433C602.91 547.961 475.799 621.348 319 621.348C162.201 621.348 35.0901 547.961 35.0901 457.433Z" id="freepik--Floor--inject-17" fill="#F5F5F5" fill-rule="evenodd" stroke="none" />
    <path d="M90.5321 471.814C90.5321 461.793 104.603 453.669 121.96 453.669C139.317 453.669 153.388 461.793 153.388 471.814C153.388 481.835 139.317 489.958 121.96 489.958C104.603 489.958 90.5321 481.835 90.5321 471.814ZM363.992 374.544L157.433 493.812C155.808 494.711 154.8 496.421 154.8 498.278C154.8 500.135 155.808 501.845 157.433 502.744L278.831 572.835C285.042 576.42 292.693 576.42 298.903 572.835L505.462 453.58C507.087 452.681 508.095 450.971 508.095 449.114C508.095 447.257 507.087 445.547 505.462 444.648L384.076 374.544C377.863 370.954 370.205 370.954 363.992 374.544L363.992 374.544ZM301.965 375.705L219.281 423.453C215.898 425.4 213.813 429.006 213.813 432.908C213.813 436.811 215.898 440.417 219.281 442.364L260.916 466.403C266.525 469.632 273.427 469.632 279.036 466.403L361.733 418.655C365.109 416.703 367.187 413.1 367.187 409.2C367.187 405.301 365.109 401.697 361.733 399.745L320.085 375.705C314.48 372.463 307.57 372.463 301.965 375.705L301.965 375.705Z" id="freepik--Shadows--inject-17" fill="#E6E6E6" stroke="none" />
    <g id="freepik--Plant--inject-17" transform="translate(74.40344 342.05737)">
      <path d="M49.2153 82.8507C49.2153 82.8507 29.7946 63.8766 40.8447 32.1042C47.0333 14.304 67.5642 1.22495 79.2523 0C75.3826 4.59774 72.2959 9.80107 70.1162 15.4013L55.3911 25.1883L68.9295 20.9519L66.0457 32.538C66.0457 32.538 53.4644 40.194 51.6014 41.8018L65.1653 38.1907C65.1653 38.1907 64.119 71.0094 49.2153 82.8507L49.2153 82.8507Z" id="Shape" fill="#407BFF" stroke="none" />
      <path d="M49.2152 82.8507C49.2152 82.8507 29.7945 63.8766 40.8447 32.1042C47.0333 14.304 67.5641 1.22495 79.2523 0C75.3825 4.59774 72.2959 9.80107 70.1161 15.4013L55.3911 25.1883L68.9294 20.9519L66.0457 32.538C66.0457 32.538 53.4643 40.194 51.6014 41.8018L65.1652 38.1907C65.1652 38.1907 64.1189 71.0094 49.2152 82.8507L49.2152 82.8507Z" id="Shape" fill="#000000" fill-opacity="0.4" stroke="none" />
      <path d="M49.2153 82.8506C49.2153 82.8506 39.1604 43.1542 54.0386 20.0076C54.0386 19.9565 36.6084 40.3853 49.2153 82.8506L49.2153 82.8506Z" id="Shape" fill="#FFFFFF" stroke="none" />
      <path d="M71.4432 88.1716L47.6713 87.8654L47.4289 87.8654L23.6698 88.1716C23.6698 88.1716 23.4018 117.443 32.4231 129.348L32.4231 129.348C34.9751 132.525 40.7554 134.746 47.5565 134.746C54.3576 134.746 60.2144 132.513 62.7026 129.335C71.6984 117.418 71.4432 88.1716 71.4432 88.1716L71.4432 88.1716Z" id="Shape" fill="#37474F" stroke="none" />
      <path d="M23.6698 88.1718C23.6698 81.0894 34.3643 75.348 47.5565 75.348C60.7488 75.348 71.4433 81.0894 71.4433 88.1718C71.4433 95.2542 60.7488 100.996 47.5565 100.996C34.3643 100.996 23.6698 95.2542 23.6698 88.1718Z" id="Oval" fill="#455A64" fill-rule="evenodd" stroke="none" />
      <path d="M47.5566 84.7646C55.774 84.7646 62.7282 87.406 65.1781 91.0553C65.7825 90.2135 66.1163 89.2077 66.1351 88.1715C66.1351 83.0676 57.8156 78.9971 47.5566 78.9971C37.2975 78.9971 28.9525 83.1059 28.9525 88.1716C28.9739 89.2053 29.3026 90.2092 29.8967 91.0554C32.3722 87.406 39.3391 84.7646 47.5566 84.7646L47.5566 84.7646Z" id="Shape" fill="#263238" stroke="none" />
      <path d="M29.9349 91.0554C29.9349 87.5811 37.8243 84.7647 47.5564 84.7647C57.2886 84.7647 65.178 87.5811 65.178 91.0554C65.178 94.5296 57.2886 97.3461 47.5564 97.3461C37.8243 97.3461 29.9349 94.5296 29.9349 91.0554Z" id="Oval" fill="#E0E0E0" fill-rule="evenodd" stroke="none" />
      <path d="M47.85 92.6375C47.85 92.6375 38.6373 92.2802 30.7516 80.0562C27.4851 75.016 25.9156 72.4002 25.9156 72.4002L38.6756 71.4432L24.3078 67.8576L17.5195 57.471L29.4501 56.5777C29.4501 56.5777 20.5181 53.4643 14.2274 53.426C14.2274 53.426 3.21552 33.9925 0 31.2236C16.8115 32.2564 32.491 40.0432 43.4733 52.8135C61.6181 74.161 50.5296 93.1862 47.85 92.6375L47.85 92.6375Z" id="Shape" fill="#407BFF" stroke="none" />
      <path d="M47.8499 92.6378C47.8499 92.6378 53.6047 57.9561 16.8687 37.1063C16.8687 37.1062 54.9956 55.4168 47.8499 92.6378L47.8499 92.6378Z" id="Shape" fill="#FFFFFF" stroke="none" />
      <path d="M47.8499 92.6376C47.8499 92.6376 56.1822 93.1735 64.4379 82.8889C67.8448 78.6526 69.5419 76.4069 69.5419 76.4069L58.0579 74.3397L71.3538 72.4512L78.4612 63.7106L67.781 61.7839C67.781 61.7839 76.0878 59.8188 81.817 60.3803C81.817 60.3803 93.5818 43.8688 96.7462 41.6741C81.4801 41.0294 66.6018 46.5841 55.4932 57.0754C37.157 74.6715 45.3745 92.88 47.8499 92.6376L47.8499 92.6376Z" id="Shape" fill="#407BFF" stroke="none" />
      <path d="M47.8499 92.6375C47.8499 92.6375 56.1822 93.1734 64.4379 82.8888C67.8448 78.6525 69.5419 76.4068 69.5419 76.4068L58.0579 74.3396L71.3538 72.4512L78.4612 63.7105L67.781 61.7838C67.781 61.7838 76.0878 59.8187 81.817 60.3802C81.817 60.3802 93.5818 43.8687 96.7463 41.674C81.4801 41.0293 66.6018 46.584 55.4932 57.0753C37.157 74.6714 45.3745 92.8799 47.8499 92.6375L47.8499 92.6375Z" id="Shape" fill="#000000" fill-opacity="0.2" stroke="none" />
      <path d="M47.8501 92.6377C47.8501 92.6377 45.9106 60.8142 81.0261 45.4257C81.0261 45.4512 44.9025 58.3898 47.8501 92.6377L47.8501 92.6377Z" id="Shape" fill="#FFFFFF" stroke="none" />
    </g>
    <g id="freepik--Pictures--inject-17" transform="translate(106.648056 72.05573)">
      <path d="M57.8411 80.2987L57.8411 143.69L2.93485 175.386L2.93485 111.995L57.8411 80.2987L57.8411 80.2987L57.8411 80.2987Z" id="Polygon" fill="#FAFAFA" fill-rule="evenodd" stroke="none" />
      <path d="M51.895 83.7314L51.895 140.258L2.93485 168.522L2.93485 111.995L51.895 83.7314M54.868 78.6273L0 110.323L0 173.715L2.97308 175.437L57.8411 143.742L57.8411 80.2988L54.868 78.5762L54.868 78.6273Z" id="Shape" fill="#E0E0E0" fill-rule="evenodd" stroke="none" />
      <path d="M54.8681 85.4409L54.8681 141.968L5.90793 170.231L5.90793 113.704L54.8681 85.4409M57.8411 80.337L2.97308 112.033L2.97308 175.424L57.8411 143.729L57.8411 80.2987L57.8411 80.337Z" id="Shape" fill="#EBEBEB" fill-rule="evenodd" stroke="none" />
      <path d="M49.7767 129.182L8.24293 153.158L20.5181 121.246L29.0162 131.326L37.7058 118.962L49.7767 129.182L49.7767 129.182Z" id="Polygon" fill="#E0E0E0" fill-rule="evenodd" stroke="none" />
      <path d="M35.3707 109.264C35.2188 111.941 33.796 114.383 31.5427 115.835C29.4501 117.035 27.7147 116.065 27.7147 113.641C27.8706 110.969 29.2929 108.532 31.5427 107.082C33.7119 105.87 35.3707 106.852 35.3707 109.264L35.3707 109.264Z" id="Shape" fill="#E0E0E0" stroke="none" />
      <path d="M76.1517 1.37827L76.1517 51.8696L32.4232 77.1217L32.4232 26.6176L76.1517 1.37827L76.1517 1.37827L76.1517 1.37827Z" id="Polygon" fill="#FAFAFA" fill-rule="evenodd" stroke="none" />
      <path d="M71.4177 4.10864L71.4177 49.1642L32.4359 71.6601L32.4359 26.6173L71.4304 4.10864M73.8039 0L30.0498 25.252L30.0498 75.7561L32.4232 77.1215L76.1517 51.8694L76.1517 1.36532L73.7911 0L73.8039 0Z" id="Shape" fill="#E0E0E0" fill-rule="evenodd" stroke="none" />
      <path d="M73.7912 5.47395L73.7912 50.504L34.7838 73.0254L34.7838 27.9826L73.7912 5.47395M76.1518 1.36531L32.436 26.6174L32.436 77.1214L76.1645 51.8694L76.1645 1.36531L76.1518 1.36531Z" id="Shape" fill="#EBEBEB" fill-rule="evenodd" stroke="none" />
      <path d="M69.7333 40.3217L36.6466 59.4234L46.4208 33.9927L53.1964 42.0315L60.1123 32.168L69.7333 40.3217L69.7333 40.3217Z" id="Polygon" fill="#E0E0E0" fill-rule="evenodd" stroke="none" />
      <path d="M58.2622 24.4484C58.1487 26.5755 57.0247 28.52 55.2381 29.68C53.5665 30.6497 52.2267 29.8586 52.2267 27.9446C52.3353 25.8193 53.4548 23.8744 55.2381 22.713C56.9096 21.7433 58.2622 22.5344 58.2622 24.4484L58.2622 24.4484Z" id="Shape" fill="#E0E0E0" stroke="none" />
    </g>
    <g id="freepik--Character--inject-17" transform="translate(178.64003 148.63374)">
      <path d="M97.1675 216.723L114.917 325.043C115.186 326.679 116.602 327.879 118.26 327.876L118.26 327.876C119.22 327.874 120.134 327.465 120.775 326.749C121.415 326.033 121.721 325.079 121.616 324.124L109.162 212.372L97.1675 216.723Z" id="Shape" fill="#263238" stroke="none" />
      <path d="M158.441 180.294L176.203 288.613C176.466 290.247 177.878 291.448 179.533 291.446L179.533 291.446C180.496 291.445 181.413 291.033 182.054 290.315C182.694 289.596 182.998 288.638 182.889 287.682L170.435 175.942L158.441 180.294Z" id="Shape" fill="#263238" stroke="none" />
      <path d="M69.9248 191.395L52.4053 284.734C52.1632 286.085 50.9834 287.065 49.6109 287.056C48.7831 287.054 47.9972 286.692 47.4563 286.066C46.9154 285.439 46.6727 284.609 46.7909 283.79L59.7296 197.277L69.9248 191.395Z" id="Shape" fill="#263238" stroke="none" />
      <path d="M131.887 156.573L114.47 249.338C114.228 250.689 113.048 251.669 111.676 251.66C110.85 251.657 110.067 251.298 109.526 250.674C108.986 250.05 108.741 249.224 108.856 248.406L121.692 162.442L131.887 156.573Z" id="Shape" fill="#263238" stroke="none" />
      <path d="M126.834 149.504C118.658 145.885 113.058 138.151 112.173 129.253C109.353 100.824 99.3366 42.2557 65.4205 61.753C23.5422 85.8184 38.5352 155.705 44.6217 178.111C45.9747 183.16 48.6124 187.771 52.2777 191.497C59.8444 199.153 75.5009 212.244 102.144 223.397C105.412 224.762 109.047 224.978 112.454 224.009C125.686 220.245 160.253 208.697 177.53 186.622C179.566 184.018 179.121 180.259 176.535 178.201C169.555 172.663 153.771 161.523 126.834 149.504L126.834 149.504Z" id="Shape" fill="#407BFF" stroke="none" />
      <path d="M126.834 149.504C118.658 145.885 113.058 138.151 112.173 129.253C109.353 100.824 99.3366 42.2557 65.4205 61.753C23.5422 85.8184 38.5352 155.705 44.6217 178.111C45.9747 183.16 48.6124 187.771 52.2777 191.497C59.8444 199.153 75.5009 212.244 102.144 223.397C105.412 224.762 109.047 224.978 112.454 224.009C125.686 220.245 160.253 208.697 177.53 186.622C179.566 184.018 179.121 180.259 176.535 178.201C169.555 172.663 153.771 161.523 126.834 149.504L126.834 149.504Z" id="Shape" fill="#000000" fill-opacity="0.5" stroke="none" />
      <path d="M178.78 182.628C178.855 184.074 178.401 185.498 177.504 186.635C176.586 187.822 175.603 188.957 174.595 190.08L174.595 190.08C174.034 190.693 173.472 191.292 172.885 191.879L172.885 191.879C172.311 192.466 171.724 193.041 171.124 193.615L171.124 193.615L169.313 195.299L169.313 195.299C168.687 195.848 168.037 196.396 167.411 196.932L167.411 196.932C157.624 205.137 145.719 211.389 135.167 215.894L135.167 215.894L133.202 216.723L132.998 216.8L131.186 217.54L130.867 217.654L129.182 218.318L128.8 218.471L127.23 219.058L126.771 219.224L125.316 219.76L124.793 219.951L123.453 220.423L122.904 220.615L121.628 221.036L121.029 221.24L119.906 221.61L119.268 221.827L118.26 222.146L117.571 222.363L116.703 222.644L115.963 222.861L115.236 223.09L114.33 223.358L113.87 223.486C113.436 223.626 113.003 223.741 112.594 223.856C109.187 224.825 105.552 224.609 102.284 223.243C75.6413 212.078 59.9848 198.999 52.4181 191.343C48.7529 187.618 46.1152 183.006 44.7621 177.958C38.6756 155.552 23.6826 85.665 65.5609 61.5997C66.301 61.1828 67.0283 60.8001 67.7429 60.4513L68.215 60.2216C68.9296 59.8899 69.6186 59.5836 70.3077 59.3156L70.5118 59.2391C71.1626 58.9966 71.7878 58.7797 72.4514 58.6011L72.7448 58.5118C73.4339 58.3204 74.1102 58.1672 74.7737 58.0396L74.9523 58.0396C76.274 57.8033 77.6172 57.7092 78.9589 57.7589L79.0355 57.7589C80.3298 57.8072 81.6142 58.0042 82.8635 58.3459L82.8635 58.3459C76.1773 55.3983 68.0109 55.5259 59.8955 60.1833C18.0172 84.2487 33.0102 154.135 39.0967 176.542L40.1303 180.37C42.207 188.147 46.8018 195.016 53.1965 199.905L64.068 208.212L64.068 208.212C75.745 217.114 88.521 224.474 102.08 230.108C105.357 231.489 109.007 231.714 112.428 230.746C125.648 226.982 160.24 215.434 177.504 193.36C178.25 192.42 178.695 191.277 178.78 190.08L178.78 190.08L178.78 182.616L178.78 182.628Z" id="Shape" fill="#407BFF" stroke="none" />
      <path d="M178.78 182.628C178.855 184.074 178.401 185.498 177.504 186.635C176.586 187.822 175.603 188.957 174.595 190.08L174.595 190.08C174.034 190.693 173.472 191.292 172.885 191.879L172.885 191.879C172.311 192.466 171.724 193.041 171.124 193.615L171.124 193.615L169.313 195.299L169.313 195.299C168.687 195.848 168.037 196.396 167.411 196.932L167.411 196.932C157.624 205.137 145.719 211.389 135.167 215.894L135.167 215.894L133.202 216.723L132.998 216.8L131.186 217.54L130.867 217.654L129.182 218.318L128.8 218.471L127.23 219.058L126.771 219.224L125.316 219.76L124.793 219.951L123.453 220.423L122.904 220.615L121.628 221.036L121.029 221.24L119.906 221.61L119.268 221.827L118.26 222.146L117.571 222.363L116.703 222.644L115.963 222.861L115.236 223.09L114.33 223.358L113.87 223.486C113.436 223.626 113.003 223.741 112.594 223.856C109.187 224.825 105.552 224.609 102.284 223.243C75.6413 212.078 59.9848 198.999 52.4181 191.343C48.7529 187.618 46.1152 183.006 44.7621 177.958C38.6756 155.552 23.6826 85.665 65.5609 61.5997C66.301 61.1828 67.0283 60.8001 67.7429 60.4513L68.215 60.2216C68.9296 59.8899 69.6186 59.5836 70.3077 59.3156L70.5118 59.2391C71.1626 58.9966 71.7878 58.7797 72.4514 58.6011L72.7448 58.5118C73.4339 58.3204 74.1102 58.1672 74.7737 58.0396L74.9523 58.0396C76.274 57.8033 77.6172 57.7092 78.9589 57.7589L79.0355 57.7589C80.3298 57.8072 81.6142 58.0042 82.8635 58.3459L82.8635 58.3459C76.1773 55.3983 68.0109 55.5259 59.8955 60.1833C18.0172 84.2487 33.0102 154.135 39.0967 176.542L40.1303 180.37C42.207 188.147 46.8018 195.016 53.1965 199.905L64.068 208.212L64.068 208.212C75.745 217.114 88.521 224.474 102.08 230.108C105.357 231.489 109.007 231.714 112.428 230.746C125.648 226.982 160.24 215.434 177.504 193.36C178.25 192.42 178.695 191.277 178.78 190.08L178.78 190.08L178.78 182.616L178.78 182.628Z" id="Shape" fill="#000000" fill-opacity="0.6" stroke="none" />
      <path d="M201.876 262.595C199.018 244.361 195.356 215.218 193.263 197.992C193.127 196.86 192.935 195.737 192.689 194.623C190.462 185.013 184.362 176.751 175.833 171.795L132.883 146.275L103.726 130.963C103.726 130.963 95.9678 153.446 105.002 167.202C112.505 178.686 145.63 192.824 155.48 197.609C165.331 202.394 165.535 203.682 165.331 210.075C165.127 216.468 165.114 224.609 177.211 250.103C180.694 257.428 183.119 262.863 184.803 267.112C190.841 267.579 196.859 265.987 201.876 262.595L201.876 262.595Z" id="Shape" fill="#407BFF" stroke="none" />
      <path d="M201.876 262.595C199.018 244.361 195.356 215.218 193.263 197.992C193.058 196.299 192.734 194.624 192.293 192.977C189.781 184.067 183.901 176.484 175.896 171.834L132.883 146.224L103.726 130.912C103.726 130.912 95.9678 153.395 105.002 167.151C112.505 178.635 145.63 192.773 155.48 197.558C165.331 202.343 165.535 203.631 165.331 210.024C165.127 216.417 165.114 224.558 177.211 250.052C180.694 257.376 183.119 262.812 184.803 267.061C190.835 267.543 196.852 265.969 201.876 262.595L201.876 262.595Z" id="Shape" fill="#000000" fill-opacity="0.7" stroke="none" />
      <path d="M188.593 281.901C188.575 282.658 188.755 283.406 189.116 284.071C190.828 286.964 193.01 289.551 195.573 291.727C201.366 296.946 220.544 317.374 227.281 304.691C227.281 304.691 207.465 285.717 204.849 277.895C203.552 272.855 202.56 267.742 201.876 262.583C196.842 265.953 190.815 267.519 184.778 267.023C188.491 276.274 188.657 279.273 188.593 281.901L188.593 281.901Z" id="Shape" fill="#FFA8A7" stroke="none" />
      <path d="M209.264 280.651L208.715 279.005C208.258 277.751 206.912 277.062 205.627 277.423L197.601 279.898C196.567 280.218 195.863 281.176 195.866 282.259L195.866 283.063C195.859 283.854 195.216 284.492 194.424 284.492L194.424 284.492C192.725 284.493 191.078 283.902 189.767 282.82L188.644 281.902L188.644 279.094L188.644 279.094C187.171 280.056 186.32 281.727 186.411 283.484C186.513 285.385 186.602 287.707 186.526 288.588C186.398 290.272 184.829 297.29 186.704 299.37C188.58 301.45 192.791 301.692 197.997 301.131C203.203 300.57 208.894 305.686 213.717 307.588C218.541 309.489 238.523 313.572 238.472 300.799C238.472 297.545 235.243 296.218 232.092 295.07C228.94 293.922 217.533 289.902 214.61 287.491C213.436 286.513 212.348 285.438 211.357 284.275C210.426 283.217 209.715 281.986 209.264 280.651L209.264 280.651Z" id="Shape" fill="#455A64" stroke="none" />
      <path d="M213.666 307.625C208.843 305.724 203.152 300.607 197.946 301.169C192.74 301.73 188.529 301.488 186.653 299.408C186.052 298.544 185.739 297.512 185.76 296.46C185.671 298.425 185.824 300.288 186.653 301.232C188.529 303.312 192.74 303.555 197.946 302.993C203.152 302.432 208.843 307.561 213.666 309.45C218.489 311.338 238.472 315.434 238.421 302.662C238.408 302.477 238.382 302.294 238.344 302.113C237.094 313.278 218.324 309.45 213.666 307.625L213.666 307.625Z" id="Shape" fill="#263238" stroke="none" />
      <path d="M162.869 284.721C159.998 266.5 156.348 237.356 154.243 220.117C153.143 211.059 148.669 202.748 141.713 196.843L90.1749 153.025L62.6261 152.502C62.6261 152.502 56.9479 175.47 65.9564 189.213C73.4721 200.697 106.584 214.847 116.435 219.62C126.286 224.392 126.49 225.706 126.286 232.086C126.082 238.466 126.069 246.62 138.178 272.114C141.649 279.451 144.073 284.874 145.757 289.123C151.794 289.627 157.824 288.075 162.869 284.721L162.869 284.721Z" id="Shape" fill="#407BFF" stroke="none" />
      <path d="M162.869 284.721C159.998 266.5 156.348 237.356 154.243 220.117C153.143 211.059 148.669 202.748 141.713 196.843L90.1749 153.025L62.6261 152.502C62.6261 152.502 56.9479 175.47 65.9564 189.213C73.4721 200.697 106.584 214.847 116.435 219.62C126.286 224.392 126.49 225.706 126.286 232.086C126.082 238.466 126.069 246.62 138.178 272.114C141.649 279.451 144.073 284.874 145.757 289.123C151.794 289.627 157.824 288.075 162.869 284.721L162.869 284.721Z" id="Shape" fill="#000000" fill-opacity="0.7" stroke="none" />
      <path d="M149.56 302.381C149.56 303.147 149.037 305.405 150.096 306.209C151.448 307.217 152.737 310.445 156.565 313.865C162.346 319.084 168.458 307.842 165.829 300.046C164.54 295.005 163.551 289.892 162.869 284.734C157.829 288.102 151.799 289.666 145.757 289.174C149.483 298.387 149.637 299.765 149.56 302.381L149.56 302.381Z" id="Shape" fill="#FFA8A7" stroke="none" />
      <path d="M115.504 57.4658L115.504 57.4658C123.645 56.1727 131.529 60.9537 134.146 68.7712C135.966 74.2377 137.135 79.8996 137.629 85.6399C139.122 103.313 139.531 112.142 139.531 112.142L157.28 120.194C157.28 120.194 147.697 120.653 148.348 134.23L126.235 128.654L115.504 57.4658Z" id="Shape" fill="#FFA8A7" stroke="none" />
      <path d="M140.181 101.462C137.566 82.3222 136.532 72.3055 134.286 67.5588C131.114 60.2548 123.345 56.0803 115.504 57.4657L122.19 110.037L123.045 109.96C128.966 109.376 134.543 106.907 138.956 102.917L140.181 101.462Z" id="Shape" fill="#2D2D2D" stroke="none" />
      <path d="M139.531 112.142C137.537 112.755 135.732 113.866 134.286 115.371C134.286 115.371 136.43 111.3 139.39 110.037L139.531 112.142Z" id="Shape" fill="#F28F8F" stroke="none" />
      <path d="M72.8596 72.9689L92.7142 63.3479L109.073 57.6952C109.073 57.6952 122.19 53.5227 125.533 70.9911C128.302 85.3462 128.659 139.895 128.659 139.895L128.366 145.854C128.366 145.854 120.799 167.061 93.7605 168.822C66.7221 170.583 61.4522 159.176 61.4522 159.176C61.4522 159.176 58.696 86.9922 72.8596 72.9689L72.8596 72.9689Z" id="Shape" fill="#191919" stroke="none" />
      <path d="M135.422 14.6942C135.422 14.6942 141.56 30.4273 133.087 37.356C124.614 44.2846 127.6 16.3913 127.6 16.3913L135.422 14.6942Z" id="Shape" fill="#263238" stroke="none" />
      <path d="M188.606 104.639L0 213.533L0 237.127L0 237.127L0 351.775L0 351.775C0.0182631 352.704 0.576747 353.537 1.42911 353.906C3.61692 355.024 6.20829 355.024 8.39608 353.906C9.24347 353.533 9.79644 352.701 9.81246 351.775L9.81244 351.775L9.81244 242.805L112.071 301.794L112.071 417.566L112.071 417.566C112.094 418.49 112.652 419.316 113.5 419.684C115.688 420.802 118.279 420.802 120.467 419.684C121.315 419.316 121.873 418.49 121.896 417.566L121.896 417.566L121.896 301.794L295.726 201.437L295.726 311.173L295.726 311.173C295.755 312.099 296.324 312.923 297.18 313.278C299.368 314.396 301.96 314.396 304.147 313.278C304.998 312.913 305.556 312.085 305.576 311.16L305.576 311.16L305.576 172.191L188.606 104.639Z" id="Shape" fill="#455A64" stroke="none" />
      <path d="M120.467 419.709C118.279 420.827 115.688 420.827 113.5 419.709C111.573 418.599 111.573 416.8 113.5 415.69C115.688 414.572 118.279 414.572 120.467 415.69C122.394 416.8 122.394 418.599 120.467 419.709L120.467 419.709Z" id="Shape" fill="#455A64" stroke="none" />
      <path d="M112.071 298.974L121.922 298.974L121.922 417.591L112.071 417.591L112.071 298.974Z" id="Rectangle" fill="#37474F" fill-rule="evenodd" stroke="none" />
      <path d="M0.012829 351.903C0.012829 350.331 2.21799 349.057 4.93819 349.057C7.65839 349.057 9.86355 350.331 9.86355 351.903C9.86355 353.474 7.65839 354.748 4.93819 354.748C2.21799 354.748 0.012829 353.474 0.012829 351.903Z" id="Oval" fill="#455A64" fill-rule="evenodd" stroke="none" />
      <path d="M0.012829 233.184L9.86355 233.184L9.86355 351.801L0.012829 351.801L0.012829 233.184Z" id="Rectangle" fill="#263238" fill-rule="evenodd" stroke="none" />
      <path d="M304.147 313.278C301.96 314.396 299.368 314.396 297.18 313.278C295.254 312.168 295.254 310.369 297.18 309.259C299.368 308.141 301.96 308.141 304.147 309.259C306.074 310.382 306.074 312.181 304.147 313.278L304.147 313.278Z" id="Shape" fill="#455A64" stroke="none" />
      <path d="M295.751 192.556L305.602 192.556L305.602 311.173L295.751 311.173L295.751 192.556Z" id="Rectangle" fill="#37474F" fill-rule="evenodd" stroke="none" />
      <path d="M183.744 223.524C181.779 224.52 179.457 224.52 177.492 223.524C175.769 222.529 175.769 220.972 177.492 219.926C179.454 218.918 181.782 218.918 183.744 219.926C185.416 220.921 185.416 222.529 183.744 223.524L183.744 223.524Z" id="Shape" fill="#455A64" stroke="none" />
      <path d="M176.152 122.644L184.995 122.644L184.995 221.636L176.152 221.636L176.152 122.644Z" id="Rectangle" fill="#455A64" fill-rule="evenodd" stroke="none" />
      <path d="M0 213.534L0 237.127L116.996 304.678L116.996 281.072L0 213.534L0 213.534Z" id="Polygon" fill="#263238" fill-rule="evenodd" stroke="none" />
      <path d="M305.602 172.191L116.996 281.072L116.996 304.678L305.602 195.784L305.602 172.191L305.602 172.191Z" id="Polygon" fill="#37474F" fill-rule="evenodd" stroke="none" />
      <path d="M188.606 104.639L0 213.533L116.996 281.072L305.602 172.191L188.606 104.639L188.606 104.639Z" id="Polygon" fill="#455A64" fill-rule="evenodd" stroke="none" />
      <path d="M93.9902 178.124L136.889 202.891L208.205 161.638L165.319 136.373L93.9902 178.124L93.9902 178.124Z" id="Polygon" fill="#EBEBEB" fill-rule="evenodd" stroke="none" />
      <path d="M132.27 171.068L148.361 161.779L138.28 155.96L122.19 165.25L132.27 171.068L132.27 171.068Z" id="Polygon" fill="#E0E0E0" fill-rule="evenodd" stroke="none" />
      <path d="M138.714 196.703L117.035 183.943L159.398 158.295L138.714 196.703L138.714 196.703Z" id="Polygon" fill="#E0E0E0" fill-rule="evenodd" stroke="none" />
      <path d="M150.849 117.132L168.011 125.183C173.139 126.477 178.194 128.04 183.157 129.866C183.157 129.866 195.1 134.74 195.649 137.943C196.198 141.146 186.717 148.866 178.334 145.114C176.143 143.94 173.798 143.081 171.367 142.562C169.134 142.32 162.435 141.286 157.65 136.68L137.629 131.474C137.629 131.474 136.634 119.122 150.849 117.132L150.849 117.132Z" id="Shape" fill="#FFA8A7" stroke="none" />
      <path d="M161.963 141.018C163.94 143.149 169.619 148.521 170.895 150.078C172.171 151.635 175.054 147.641 169.938 141.682C165.508 140.06 161.342 137.794 157.573 134.957C158.879 137.087 160.347 139.113 161.963 141.018L161.963 141.018Z" id="Shape" fill="#FFA8A7" stroke="none" />
      <path d="M92.7143 38.6958L113.079 38.6958L113.079 63.3481L92.7143 63.3481L92.7143 38.6958Z" id="Rectangle" fill="#FFA8A7" fill-rule="evenodd" stroke="none" />
      <path d="M113.092 63.3481C104.698 60.2151 97.9527 53.7831 94.424 45.5479L94.424 38.6958L113.143 38.6958L113.092 63.3481Z" id="Shape" fill="#F28F8F" stroke="none" />
      <path d="M119.944 6.14492C119.944 6.14492 138.471 8.37792 134.222 40.0355C132.257 54.6712 128.34 62.072 117.06 60.8215C104.3 59.3924 86.6021 49.4651 89.3454 24.379C92.0888 -0.707216 119.944 6.14492 119.944 6.14492L119.944 6.14492Z" id="Shape" fill="#FFA8A7" stroke="none" />
      <path d="M120.978 34.37L120.314 45.3053L126.835 43.7358L120.978 34.37L120.978 34.37Z" id="Polygon" fill="#F28F8F" fill-rule="evenodd" stroke="none" />
      <path d="M111.28 33.3876C111.225 34.2895 111.719 35.1358 112.531 35.5315C113.343 35.9273 114.314 35.7944 114.99 35.195C115.666 34.5956 115.915 33.6478 115.619 32.7939C115.324 31.94 114.543 31.3483 113.641 31.295C112.411 31.2223 111.355 32.1585 111.28 33.3876L111.28 33.3876Z" id="Shape" fill="#263238" stroke="none" />
      <path d="M126.018 32.737C125.943 33.9669 126.878 35.0249 128.108 35.1014C129.338 35.1779 130.397 34.2439 130.475 33.0143C130.553 31.7847 129.621 30.7241 128.391 30.6444C127.799 30.606 127.215 30.8051 126.77 31.1978C126.324 31.5905 126.054 32.1444 126.018 32.737L126.018 32.737Z" id="Shape" fill="#263238" stroke="none" />
      <path d="M131.249 28.3985L127.051 25.5402C127.051 25.5402 128.825 23.907 130.433 25.0553C131.368 25.895 131.692 27.2223 131.249 28.3985L131.249 28.3985Z" id="Shape" fill="#263238" stroke="none" />
      <path d="M112.824 27.9008L108.294 30.1721C108.294 30.1721 107.733 27.8242 109.506 26.9948C110.693 26.5812 112.012 26.9414 112.824 27.9008L112.824 27.9008Z" id="Shape" fill="#263238" stroke="none" />
      <path d="M120.633 49.7459C118.083 49.7708 115.599 48.9395 113.577 47.3853C113.577 47.3853 112.862 51.1367 115.976 52.0427C119.089 52.9486 120.633 49.7459 120.633 49.7459L120.633 49.7459Z" id="Shape" fill="#F28F8F" stroke="none" />
      <path d="M92.4973 34.1149C92.4973 34.1149 95.3427 40.0483 97.1036 39.8442C98.8645 39.64 97.1036 17.1186 100.753 16.9783C104.402 16.8379 121.628 25.3871 136.851 14.3497C142.708 10.1134 143.869 -0.70711 140.36 0.313694C136.851 1.3345 132.117 4.40965 125.724 3.97582C119.332 3.54198 96.9505 -6.84467 91.3999 7.80382C91.3999 7.80382 79.0227 6.79578 83.6673 31.3715C84.8285 37.4836 88.4779 52.6169 92.7142 54.1099L92.4973 34.1149Z" id="Shape" fill="#263238" stroke="none" />
      <path d="M93.5053 39.5252C93.5757 37.6693 93.2313 35.821 92.4973 34.115C91.7466 31.9688 89.8001 30.4677 87.5336 30.287C81.8171 30.1339 81.0388 35.6462 81.1536 37.5985C81.3578 42.7025 85.5303 48.3168 93.2884 48.5338L93.5053 39.5252Z" id="Shape" fill="#FFA8A7" stroke="none" />
      <path d="M95.2662 149.836L109.864 161.434C112.36 161.67 114.834 162.096 117.265 162.71C120.059 163.54 127.383 166.232 129.323 166.653C131.262 167.074 128.761 170.481 123.683 169.205C123.683 169.205 134.325 176.491 134.184 179.732C134.044 182.973 123.121 188.511 115.746 183.075C113.846 181.487 111.738 180.165 109.481 179.145C107.337 178.443 101.047 176.006 97.3078 170.494L84.5478 163.846C84.5478 163.846 80.9495 148.776 95.2662 149.836L95.2662 149.836Z" id="Shape" fill="#FFA8A7" stroke="none" />
      <path d="M79.3416 69.8302C79.3416 69.8302 87.8526 76.4272 82.621 96.9325C77.3894 117.438 74.5949 135.11 74.5949 135.11L95.2661 149.835C89.5132 152.354 85.463 157.658 84.5477 163.871C84.5477 163.871 51.9587 151.111 51.2952 142.83C50.6317 134.549 58.0963 98.9996 59.2319 92.4537C60.3675 85.9078 66.1606 72.9309 79.3416 69.8302L79.3416 69.8302Z" id="Shape" fill="#FFA8A7" stroke="none" />
      <path d="M74.595 135.11C72.0181 134.605 69.3651 134.631 66.7986 135.187C69.245 133.859 71.9902 133.178 74.7736 133.209L74.595 135.11Z" id="Shape" fill="#F28F8F" stroke="none" />
      <path d="M218.196 114.388L210.731 163.195C210.742 163.224 210.742 163.256 210.731 163.284L136.532 206.247C136.494 206.266 136.45 206.263 136.415 206.239C136.38 206.215 136.362 206.174 136.366 206.132L143.601 158.793C143.912 156.75 145.107 154.948 146.868 153.867L214.827 112.193C215.556 111.715 216.499 111.714 217.229 112.19C217.959 112.665 218.339 113.528 218.196 114.388L218.196 114.388Z" id="Shape" fill="#FAFAFA" stroke="none" />
      <path d="M136.532 206.247L96.9761 183.279C95.1206 182.202 93.9783 180.219 93.9775 178.073L93.9775 178.073L136.877 202.84L136.532 206.247Z" id="Shape" fill="#E0E0E0" stroke="none" />
      <path d="M175.284 161.434C175.284 164.93 177.734 166.334 180.745 164.599C183.976 162.496 186.009 158.979 186.219 155.131C186.22 151.634 183.77 150.231 180.745 151.966C177.523 154.074 175.496 157.589 175.284 161.434L175.284 161.434Z" id="Shape" fill="#E0E0E0" stroke="none" />
      <path d="M93.3649 14.9619C93.3649 14.9619 89.9963 9.98552 92.0889 8.37776C94.1815 6.77 95.7 11.8868 93.3649 14.9619L93.3649 14.9619Z" id="Shape" fill="#263238" stroke="none" />
      <path d="M93.9264 15.9702C93.9264 15.9702 87.9802 15.2301 88.1206 12.6271C88.2609 10.024 93.148 12.2187 93.9264 15.9702L93.9264 15.9702Z" id="Shape" fill="#263238" stroke="none" />
      <path d="M92.7143 63.3479C92.7143 63.3479 97.0909 74.8319 107.171 73.4027C117.252 71.9736 113.092 63.3479 113.092 63.3479L92.7143 63.3479Z" id="Shape" fill="#FFA8A7" stroke="none" />
      <path d="M79.3418 69.8302C79.3418 69.8302 85.977 73.0075 84.9562 86.3544C83.9354 99.7014 78.6655 126.599 78.6655 126.599C78.6655 126.599 54.9191 136.221 52.6479 122.657C52.0737 119.148 58.0581 86.699 63.1749 79.8341C66.9708 74.4308 72.8124 70.8161 79.3418 69.8302L79.3418 69.8302Z" id="Shape" fill="#2D2D2D" stroke="none" />
      <path d="M150.096 303.07C150.987 304.421 152.354 305.386 153.924 305.775C155.366 306.005 152.457 302.266 155.927 300.761C159.398 299.255 167.347 297.201 168.062 300.186L168.942 303.912C169.772 307.435 171.455 310.699 173.842 313.419C176.159 316.223 178.797 318.745 181.702 320.934C186.245 323.856 193.71 330.938 184.127 336.974C174.544 343.009 162.779 337.905 160.47 331.053C158.16 324.201 155.723 322.21 154.498 321.075C151.917 319.263 150.077 316.581 149.318 313.521C148.695 310.489 148.269 307.42 148.042 304.334C147.944 303.064 148.552 301.843 149.624 301.156L149.624 301.156L150.096 303.07Z" id="Shape" fill="#455A64" stroke="none" />
      <path d="M184.178 336.948C174.595 342.971 162.83 337.88 160.521 331.027C158.211 324.175 155.774 322.185 154.549 321.049C152.386 319.485 150.724 317.326 149.764 314.835C149.764 315.014 149.764 315.218 149.764 315.396C150.134 321.33 153.771 322.721 154.996 323.869C156.221 325.017 158.237 326.88 160.546 333.745C162.856 340.61 175.003 344.872 184.573 338.849C189.231 335.927 189.856 332.75 188.759 329.917C188.988 332.227 187.814 334.664 184.178 336.948L184.178 336.948Z" id="Shape" fill="#263238" stroke="none" />
      <path d="M138.14 245.854L107.618 263.514L69.0827 241.261L99.7067 223.601C100.523 223.141 101.519 223.141 102.335 223.601L138.178 244.297C138.449 244.467 138.609 244.767 138.602 245.087C138.594 245.406 138.418 245.698 138.14 245.854L138.14 245.854Z" id="Shape" fill="#407BFF" stroke="none" />
      <path d="M138.14 245.854L107.618 263.514L69.0827 241.261L99.7067 223.601C100.523 223.141 101.519 223.141 102.335 223.601L138.178 244.297C138.449 244.467 138.609 244.767 138.602 245.087C138.594 245.406 138.418 245.698 138.14 245.854L138.14 245.854Z" id="Shape" fill="#000000" fill-opacity="0.7" stroke="none" />
      <path d="M136.022 245.216L107.618 261.613L71.7494 240.916L100.217 224.481C100.968 224.035 101.903 224.035 102.654 224.481L136.022 243.736C136.286 243.889 136.448 244.171 136.448 244.476C136.448 244.782 136.286 245.064 136.022 245.217L136.022 245.216Z" id="Shape" fill="#FFFFFF" stroke="none" />
      <path d="M107.618 261.613L107.618 258.41L136.455 241.771L136.455 244.489L107.618 261.613L107.618 261.613Z" id="Polygon" fill="#FFFFFF" fill-rule="evenodd" stroke="none" />
      <path d="M107.618 261.613L107.618 258.41L71.7494 237.714L71.7494 240.916L107.618 261.613L107.618 261.613Z" id="Polygon" fill="#E0E0E0" fill-rule="evenodd" stroke="none" />
      <path d="M138.14 240.789L107.618 258.41L69.0827 236.169L99.7067 218.51C100.523 218.05 101.519 218.05 102.335 218.51L138.14 239.27C138.397 239.437 138.551 239.723 138.551 240.029C138.551 240.336 138.397 240.621 138.14 240.789L138.14 240.789Z" id="Shape" fill="#407BFF" stroke="none" />
      <path d="M138.14 240.789L107.618 258.41L69.0827 236.169L99.7067 218.51C100.523 218.05 101.519 218.05 102.335 218.51L138.14 239.27C138.397 239.437 138.551 239.723 138.551 240.029C138.551 240.336 138.397 240.621 138.14 240.789L138.14 240.789Z" id="Shape" fill="#000000" fill-opacity="0.5" stroke="none" />
      <path d="M103.624 261.179C103.447 261.268 103.239 261.268 103.063 261.179C102.837 261.058 102.695 260.823 102.693 260.567L102.693 257.645C102.705 256.316 103.406 255.09 104.543 254.404L104.658 254.327C104.765 254.268 104.896 254.27 105.001 254.334C105.106 254.397 105.17 254.511 105.168 254.633C105.168 254.964 105.437 255.233 105.768 255.233C106.099 255.233 106.367 254.964 106.367 254.633C106.373 254.078 106.074 253.564 105.589 253.293C105.114 253.007 104.52 253.007 104.045 253.293L103.93 253.357C102.421 254.253 101.495 255.877 101.493 257.632L101.493 260.528C101.493 261.225 101.875 261.867 102.488 262.2C102.763 262.346 103.07 262.421 103.382 262.417C103.759 262.419 104.128 262.308 104.441 262.098C104.556 262.02 104.638 261.901 104.67 261.766L103.624 261.179Z" id="Shape" fill="#FFFFFF" stroke="none" />
      <path d="M97.9204 257.887C97.7437 257.976 97.5356 257.976 97.3589 257.887C97.1329 257.766 96.9911 257.531 96.9889 257.274L96.9889 254.378C96.9972 253.045 97.698 251.813 98.8391 251.124L98.9539 251.124C99.0612 251.065 99.1912 251.065 99.2985 251.124C99.4011 251.186 99.464 251.298 99.4643 251.418C99.4643 251.749 99.7328 252.017 100.064 252.017C100.395 252.017 100.664 251.749 100.664 251.418C100.646 250.885 100.351 250.401 99.8854 250.142C99.4107 249.855 98.8162 249.855 98.3415 250.142L98.2266 250.205C96.7173 251.101 95.7913 252.725 95.7895 254.48L95.7895 257.377C95.7892 258.074 96.171 258.715 96.7842 259.048C97.0591 259.194 97.3665 259.269 97.6779 259.265C98.055 259.268 98.4241 259.156 98.737 258.946C98.852 258.868 98.9339 258.75 98.9667 258.614L97.9204 257.887Z" id="Shape" fill="#FFFFFF" stroke="none" />
      <path d="M92.2165 254.582C92.0386 254.665 91.833 254.665 91.6551 254.582C91.4291 254.461 91.2872 254.226 91.285 253.97L91.2851 251.073C91.2934 249.741 91.9942 248.508 93.1353 247.82L93.2501 247.756C93.3573 247.697 93.4874 247.697 93.5946 247.756C93.6973 247.818 93.7601 247.929 93.7605 248.049C93.7605 248.38 94.029 248.649 94.3602 248.649C94.6914 248.649 94.96 248.38 94.96 248.049C94.9423 247.517 94.6469 247.033 94.1816 246.773C93.7069 246.486 93.1123 246.486 92.6376 246.773L92.5228 246.837C91.0135 247.732 90.0874 249.357 90.0856 251.112L90.0856 254.008C90.0854 254.705 90.4672 255.347 91.0804 255.679C91.3552 255.826 91.6627 255.901 91.9741 255.897C92.3512 255.899 92.7202 255.788 93.0332 255.578C93.1482 255.499 93.2301 255.381 93.2628 255.246L92.2165 254.582Z" id="Shape" fill="#FFFFFF" stroke="none" />
      <path d="M86.5128 251.303C86.3349 251.386 86.1293 251.386 85.9514 251.303C85.7254 251.182 85.5835 250.947 85.5813 250.69L85.5814 247.794C85.5897 246.461 86.2905 245.229 87.4316 244.54L87.5464 244.476C87.6536 244.417 87.7837 244.417 87.8909 244.476C87.9936 244.538 88.0564 244.65 88.0568 244.77C88.0568 245.101 88.3253 245.369 88.6565 245.369C88.9877 245.369 89.2562 245.101 89.2562 244.77C89.2386 244.237 88.9432 243.753 88.4779 243.494C88.0032 243.207 87.4086 243.207 86.9339 243.494L86.8191 243.557C85.3098 244.453 84.3837 246.077 84.3819 247.832L84.3819 250.729C84.3817 251.426 84.7635 252.067 85.3767 252.4C85.6515 252.546 85.9589 252.621 86.2704 252.617C86.6475 252.62 87.0165 252.508 87.3295 252.298C87.4445 252.22 87.5264 252.102 87.5591 251.966L86.5128 251.303Z" id="Shape" fill="#FFFFFF" stroke="none" />
      <path d="M80.8091 248.011C80.6312 248.094 80.4256 248.094 80.2477 248.011C80.0217 247.89 79.8798 247.655 79.8776 247.398L79.8777 244.502C79.8859 243.169 80.5868 241.937 81.7279 241.248L81.8427 241.248C81.9499 241.189 82.0799 241.189 82.1872 241.248C82.2899 241.31 82.3527 241.421 82.3531 241.542C82.3531 241.873 82.6216 242.141 82.9528 242.141C83.284 242.141 83.5525 241.873 83.5525 241.541C83.5349 241.009 83.2395 240.525 82.7742 240.265C82.2995 239.979 81.7049 239.979 81.2302 240.265L81.1154 240.329C79.6061 241.225 78.68 242.849 78.6782 244.604L78.6782 247.5C78.678 248.197 79.0598 248.839 79.673 249.172C79.95 249.312 80.256 249.387 80.5667 249.389C80.9437 249.391 81.3128 249.28 81.6258 249.07C81.7408 248.992 81.8227 248.873 81.8554 248.738L80.8091 248.011Z" id="Shape" fill="#FFFFFF" stroke="none" />
      <path d="M75.1053 244.719C74.9274 244.802 74.7218 244.802 74.5438 244.719C74.3179 244.598 74.176 244.363 74.1738 244.106L74.1738 241.184C74.1821 239.852 74.8829 238.619 76.024 237.931L76.1389 237.867C76.2461 237.808 76.3761 237.808 76.4834 237.867C76.5901 237.925 76.6544 238.039 76.6493 238.16C76.6493 238.492 76.9178 238.76 77.249 238.76C77.5802 238.76 77.8487 238.492 77.8487 238.16C77.8215 237.621 77.5168 237.134 77.0436 236.874C76.5703 236.614 75.9961 236.618 75.5264 236.884L75.4115 236.961C73.9022 237.856 72.9762 239.481 72.9744 241.235L72.9744 244.132C72.9741 244.829 73.3559 245.471 73.9691 245.803C74.2461 245.944 74.5521 246.018 74.8628 246.02C75.2399 246.023 75.609 245.912 75.9219 245.701C76.037 245.623 76.1188 245.505 76.1516 245.37L75.1053 244.719Z" id="Shape" fill="#FFFFFF" stroke="none" />
      <path d="M142.07 232.827L109.073 251.877L66.1224 227.085L99.1325 208.034L142.07 232.827L142.07 232.827Z" id="Polygon" fill="#E6E6E6" fill-rule="evenodd" stroke="none" />
      <path d="M143.971 232.201L109.494 248.432L68.7636 220.118L103.254 203.9L143.971 232.201L143.971 232.201Z" id="Polygon" fill="#FAFAFA" fill-rule="evenodd" stroke="none" />
      <path d="M66.9901 181.531L38.9819 181.531L41.5339 211.173L41.5339 211.173C41.8701 213.079 43.1191 214.7 44.877 215.511C49.9923 218.114 56.0435 218.114 61.1588 215.511C62.9125 214.695 64.1595 213.077 64.5019 211.173L64.5019 211.173L66.9901 181.531Z" id="Shape" fill="#407BFF" stroke="none" />
      <path d="M68.7764 179.911L68.7764 177.563L68.2278 177.563C67.3223 175.816 65.9011 174.39 64.1573 173.479C57.9942 169.919 47.9904 169.919 41.8273 173.479C40.0805 174.386 38.6583 175.813 37.7569 177.563L37.1954 177.563L37.1954 179.936C37.1954 182.258 38.7394 184.593 41.8273 186.38C47.9904 189.94 57.9942 189.94 64.1573 186.38C67.2452 184.593 68.7892 182.246 68.7764 179.911L68.7764 179.911Z" id="Shape" fill="#E0E0E0" stroke="none" />
      <path d="M64.1573 184.147C57.9943 187.707 47.9904 187.707 41.8273 184.147C35.6642 180.587 35.6515 174.82 41.8273 171.26C48.0032 167.7 57.9943 167.687 64.1573 171.26C70.3204 174.832 70.3204 180.574 64.1573 184.147L64.1573 184.147Z" id="Shape" fill="#EBEBEB" stroke="none" />
      <path d="M65.6502 176.746L65.6502 174.87L65.2036 174.87C64.4771 173.471 63.3363 172.33 61.9371 171.604C56.3231 168.755 49.6871 168.755 44.0731 171.604C42.6698 172.325 41.5276 173.467 40.8065 174.87L40.3599 174.87L40.3599 176.746C40.3599 178.622 41.6359 180.498 44.0731 181.914C49.6871 184.763 56.3231 184.763 61.9371 181.914C64.4125 180.472 65.6502 178.596 65.6502 176.746L65.6502 176.746Z" id="Shape" fill="#E0E0E0" stroke="none" />
      <path d="M61.9371 180.115C56.3231 182.963 49.6871 182.963 44.0731 180.115C39.1222 177.269 39.1222 172.638 44.0731 169.792C49.6871 166.943 56.3231 166.943 61.9371 169.792C66.8752 172.637 66.8752 177.269 61.9371 180.115L61.9371 180.115Z" id="Shape" fill="#F5F5F5" stroke="none" />
      <path d="M59.87 178.609C55.5429 180.803 50.4291 180.803 46.102 178.609C42.4144 176.491 42.274 173.097 45.7192 170.953C45.8409 170.863 45.9688 170.782 46.102 170.711C46.9373 170.235 47.8289 169.867 48.7561 169.613C52.4667 168.567 56.4356 168.959 59.87 170.711C63.6853 172.918 63.6853 176.414 59.87 178.609L59.87 178.609Z" id="Shape" fill="#F0F0F0" stroke="none" />
      <path d="M46.102 171.795C50.4306 169.589 55.5542 169.589 59.8828 171.795C61.2817 172.45 62.3092 173.702 62.6772 175.202C62.9707 173.582 62.0265 171.897 59.8828 170.66C55.5487 168.476 50.436 168.476 46.102 170.66C43.9455 171.936 43.0141 173.582 43.2948 175.202C43.6656 173.7 44.6981 172.447 46.102 171.795L46.102 171.795Z" id="Shape" fill="#E0E0E0" stroke="none" />
      <path d="M51.3079 172.165L48.4879 173.965L45.7318 171.987L45.7318 170.902C45.8534 170.812 45.9813 170.731 46.1145 170.66C46.9498 170.184 47.8415 169.816 48.7686 169.562L48.7686 170.366L51.3079 172.165Z" id="Shape" fill="#E0E0E0" stroke="none" />
    </g>
    <g id="freepik--Screen--inject-17" transform="translate(352.85596 54.210693)">
      <path d="M209.681 92.5293L50.8449 0.759377C49.4717 -0.253127 47.599 -0.253127 46.2258 0.759377L40.7263 4.58738L44.4777 9.23202L44.4777 137.279C44.4777 141.974 47.3359 147.487 50.8577 149.452L208.125 240.252L208.418 245.241L214.211 241.273C215.558 240.006 216.246 238.188 216.074 236.347L216.074 104.639C216.061 99.9428 213.203 94.4943 209.681 92.5293L209.681 92.5293Z" id="Shape" fill="#434343" stroke="none" />
      <path d="M204.271 244.883L45.4347 153.177C41.9257 151.148 39.0547 145.7 39.0547 141.004L39.0547 9.2956C39.0547 4.61268 41.913 2.45624 45.4347 4.48508L204.271 96.1912C207.793 98.22 210.651 103.669 210.651 108.364L210.651 240.06C210.651 244.756 207.793 246.925 204.271 244.883L204.271 244.883Z" id="Shape" fill="#407BFF" stroke="none" />
      <path d="M204.271 244.883L45.4347 153.177C41.9257 151.148 39.0547 145.7 39.0547 141.004L39.0547 9.2956C39.0547 4.61268 41.913 2.45624 45.4347 4.48508L204.271 96.1912C207.793 98.22 210.651 103.669 210.651 108.364L210.651 240.06C210.651 244.756 207.793 246.925 204.271 244.883L204.271 244.883Z" id="Shape" fill="#191919" stroke="none" />
      <path d="M204.271 96.1912L45.4347 4.48508C41.9257 2.45624 39.0547 4.61268 39.0547 9.2956L39.0547 15.6756L210.638 114.731L210.638 108.351C210.651 103.669 207.793 98.22 204.271 96.1912L204.271 96.1912Z" id="Shape" fill="#455A64" stroke="none" />
      <path d="M42.9083 4.99552L42.9083 4.99552C43.5776 5.027 44.2277 5.22905 44.7969 5.58248L203.633 97.2886C206.747 99.0878 209.375 104.153 209.375 108.364L209.375 240.06C209.375 242.612 208.367 244.373 206.823 244.373C206.148 244.341 205.493 244.134 204.922 243.773L46.0728 152.067C42.9721 150.281 40.3436 145.202 40.3436 141.004L40.3436 9.29564C40.3436 6.67984 41.3516 4.99552 42.8956 4.99552M42.8956 3.71962C40.6371 3.71962 39.0676 5.7995 39.0676 9.29574L39.0676 141.017C39.0676 145.713 41.9258 151.161 45.4476 153.19L204.271 244.884C205.039 245.36 205.92 245.624 206.823 245.649C209.082 245.649 210.651 243.557 210.651 240.06L210.651 108.364C210.651 103.669 207.793 98.1564 204.271 96.1913L45.4348 4.48522C44.6684 4.00515 43.7868 3.74066 42.8828 3.71962L42.8956 3.71962Z" id="Shape" fill="#407BFF" fill-rule="evenodd" stroke="none" />
      <path d="M112.705 73.3892C112.468 73.3938 112.234 73.332 112.029 73.2106L51.5595 38.3503C50.9712 37.9522 50.7911 37.1668 51.1471 36.5521C51.5032 35.9374 52.2741 35.7029 52.9121 36.0152L113.382 70.9266C113.944 71.2184 114.228 71.8612 114.066 72.4735C113.904 73.0858 113.338 73.5035 112.705 73.4786L112.705 73.3892Z" id="Shape" fill="#FFFFFF" stroke="none" />
      <path d="M197.776 122.566C197.537 122.567 197.303 122.501 197.1 122.375L152.312 96.5232C151.893 96.2817 151.634 95.8346 151.634 95.3505C151.633 94.8664 151.891 94.4188 152.31 94.1764C152.729 93.934 153.246 93.9336 153.665 94.1753L198.453 120.04C199.015 120.332 199.299 120.975 199.137 121.587C198.975 122.199 198.409 122.617 197.776 122.592L197.776 122.566Z" id="Shape" fill="#FFFFFF" stroke="none" />
      <path d="M143.278 91.0999C143.042 91.0968 142.81 91.0355 142.602 90.9213L124.368 80.4071C123.914 80.1847 123.622 79.7275 123.61 79.2218C123.599 78.7161 123.871 78.2465 124.316 78.0045C124.76 77.7625 125.302 77.7885 125.721 78.072L143.916 88.5735C144.479 88.8653 144.763 89.5081 144.601 90.1204C144.439 90.7327 143.873 91.1504 143.24 91.1255L143.278 91.0999Z" id="Shape" fill="#FFFFFF" stroke="none" />
      <path d="M112.705 158.129C112.469 158.127 112.236 158.066 112.029 157.95L51.5595 123.039C50.9712 122.64 50.7911 121.855 51.1471 121.24C51.5032 120.626 52.2741 120.391 52.9121 120.703L113.382 155.602C114.027 155.979 114.244 156.807 113.867 157.452C113.639 157.88 113.189 158.142 112.705 158.129L112.705 158.129Z" id="Shape" fill="#FFFFFF" stroke="none" />
      <path d="M197.776 207.242C197.539 207.246 197.304 207.185 197.1 207.063L152.312 181.212C151.664 180.838 151.442 180.01 151.815 179.362C152.189 178.713 153.017 178.49 153.665 178.864L198.453 204.728C199.094 205.1 199.316 205.92 198.95 206.566C198.706 206.983 198.26 207.24 197.776 207.242L197.776 207.242Z" id="Shape" fill="#FFFFFF" stroke="none" />
      <path d="M143.278 175.775C143.041 175.78 142.807 175.718 142.602 175.597L124.368 165.095C123.914 164.873 123.622 164.416 123.61 163.91C123.599 163.404 123.871 162.935 124.316 162.693C124.76 162.451 125.302 162.477 125.721 162.76L143.916 173.262C144.558 173.634 144.78 174.454 144.414 175.099C144.177 175.505 143.748 175.76 143.278 175.775L143.278 175.775Z" id="Shape" fill="#FFFFFF" stroke="none" />
      <path d="M112.705 178.021C112.468 178.026 112.233 177.964 112.029 177.843L51.5595 142.944C50.9114 142.571 50.6888 141.742 51.0622 141.094C51.4356 140.446 52.2637 140.223 52.912 140.596L113.382 175.469C113.944 175.761 114.228 176.404 114.066 177.016C113.904 177.629 113.338 178.046 112.705 178.021L112.705 178.021Z" id="Shape" fill="#FFFFFF" stroke="none" />
      <path d="M178.713 216.148C178.475 216.153 178.241 216.091 178.037 215.97L152.312 201.117C151.858 200.895 151.566 200.437 151.555 199.932C151.544 199.426 151.816 198.956 152.26 198.714C152.704 198.472 153.246 198.498 153.665 198.782L179.389 213.635C179.7 213.811 179.928 214.104 180.021 214.449C180.115 214.795 180.066 215.163 179.887 215.472C179.643 215.889 179.196 216.147 178.713 216.148L178.713 216.148Z" id="Shape" fill="#FFFFFF" stroke="none" />
      <path d="M143.278 195.694C143.042 195.691 142.809 195.629 142.602 195.515L124.368 185.014C123.72 184.64 123.497 183.812 123.871 183.164C124.244 182.516 125.072 182.293 125.721 182.666L143.916 193.167C144.479 193.459 144.763 194.102 144.601 194.714C144.438 195.327 143.873 195.744 143.24 195.719L143.278 195.694Z" id="Shape" fill="#FFFFFF" stroke="none" />
      <path d="M82.5536 66.5628C82.3147 66.5636 82.0804 66.4973 81.8773 66.3714L51.5595 48.8775C51.077 48.4471 50.9667 47.7354 51.2961 47.179C51.6256 46.6227 52.3027 46.3773 52.9121 46.5934L83.2298 64.0874C83.8746 64.4645 84.0917 65.2928 83.7147 65.9376C83.4737 66.3454 83.0267 66.5861 82.5536 66.5628L82.5536 66.5628Z" id="Shape" fill="#FFFFFF" stroke="none" />
      <path d="M169.87 116.977C169.634 116.974 169.401 116.913 169.194 116.799L124.368 90.9341C123.914 90.7117 123.622 90.2545 123.61 89.7488C123.599 89.2431 123.871 88.7735 124.316 88.5315C124.76 88.2895 125.302 88.3155 125.721 88.599L170.508 114.451C171.071 114.743 171.355 115.385 171.193 115.998C171.03 116.61 170.465 117.028 169.832 117.003L169.87 116.977Z" id="Shape" fill="#FFFFFF" stroke="none" />
      <path d="M113.126 84.2098C112.889 84.2144 112.655 84.1525 112.45 84.0311L94.2544 73.5296C93.6063 73.156 93.3837 72.3278 93.7571 71.6796C94.1305 71.0314 94.9586 70.8086 95.6069 71.1818L113.803 81.6833C114.447 82.0603 114.665 82.8886 114.288 83.5335C114.06 83.9609 113.61 84.2229 113.126 84.2098L113.126 84.2098Z" id="Shape" fill="#FFFFFF" stroke="none" />
      <path d="M112.705 94.4942C112.466 94.495 112.232 94.4287 112.029 94.3028L51.5595 59.3532C51.0578 58.9275 50.9352 58.2025 51.2691 57.6355C51.603 57.0686 52.2964 56.8241 52.912 57.0564L113.382 91.9677C114.026 92.3448 114.244 93.1731 113.867 93.8179C113.639 94.2454 113.189 94.5074 112.705 94.4942L112.705 94.4942Z" id="Shape" fill="#FFFFFF" stroke="none" />
      <path d="M164.919 124.633C164.682 124.638 164.447 124.576 164.243 124.455L152.312 117.564C151.858 117.342 151.566 116.885 151.555 116.379C151.544 115.873 151.816 115.404 152.26 115.162C152.704 114.92 153.246 114.946 153.665 115.229L165.596 122.12C166.237 122.492 166.459 123.312 166.093 123.957C165.849 124.374 165.403 124.632 164.919 124.633L164.919 124.633Z" id="Shape" fill="#FFFFFF" stroke="none" />
      <path d="M88.5123 91.0489C88.2757 91.0458 88.0434 90.9845 87.8361 90.8703L75.8799 83.9799C75.2319 83.6063 75.0092 82.7781 75.3827 82.1299C75.7561 81.4817 76.5842 81.2589 77.2325 81.6321L89.1631 88.5225C89.7253 88.8143 90.0097 89.4572 89.8474 90.0694C89.6852 90.6817 89.1198 91.0994 88.4868 91.0745L88.5123 91.0489Z" id="Shape" fill="#FFFFFF" stroke="none" />
      <path d="M143.278 112.142C143.042 112.138 142.809 112.077 142.602 111.963L124.368 101.462C123.72 101.088 123.497 100.26 123.871 99.6115C124.244 98.9633 125.072 98.7404 125.721 99.1137L143.916 109.615C144.479 109.907 144.763 110.55 144.601 111.162C144.438 111.774 143.873 112.192 143.24 112.167L143.278 112.142Z" id="Shape" fill="#FFFFFF" stroke="none" />
      <path d="M71.6183 81.2875C71.3806 81.2921 71.1464 81.2302 70.942 81.1088L51.5595 69.9183C50.9712 69.5202 50.7911 68.7349 51.1471 68.1202C51.5032 67.5055 52.2741 67.271 52.9121 67.5832L72.2945 78.7738C72.8865 79.0459 73.1968 79.7045 73.0299 80.3342C72.863 80.964 72.2673 81.3824 71.6183 81.3258L71.6183 81.2875Z" id="Shape" fill="#FFFFFF" stroke="none" />
      <path d="M113.126 105.289C112.889 105.294 112.655 105.232 112.45 105.111L94.2544 94.5708C93.8001 94.3484 93.5078 93.8912 93.4967 93.3855C93.4857 92.8798 93.7577 92.4102 94.2018 92.1682C94.646 91.9262 95.188 91.9522 95.607 92.2357L113.803 102.737C114.365 103.029 114.649 103.672 114.487 104.284C114.325 104.896 113.759 105.314 113.126 105.289L113.126 105.289Z" id="Shape" fill="#FFFFFF" stroke="none" />
      <path d="M112.705 116.301C112.468 116.306 112.234 116.244 112.029 116.123L51.5595 81.2112C50.9712 80.8131 50.7911 80.0277 51.1471 79.413C51.5032 78.7983 52.2741 78.5638 52.9121 78.8761L113.382 113.775C114.027 114.152 114.244 114.98 113.867 115.625C113.639 116.052 113.189 116.314 112.705 116.301L112.705 116.301Z" id="Shape" fill="#FFFFFF" stroke="none" />
      <path d="M197.776 165.414C197.541 165.427 197.307 165.374 197.1 165.261L152.312 139.41C151.664 139.036 151.442 138.208 151.815 137.56C152.189 136.911 153.017 136.689 153.665 137.062L198.453 162.926C199.094 163.299 199.316 164.118 198.95 164.764C198.7 165.171 198.255 165.418 197.776 165.414L197.776 165.414Z" id="Shape" fill="#FFFFFF" stroke="none" />
      <path d="M143.278 133.948C143.041 133.953 142.807 133.891 142.602 133.769L124.368 123.268C123.914 123.046 123.622 122.588 123.61 122.083C123.599 121.577 123.871 121.107 124.316 120.865C124.76 120.623 125.302 120.649 125.721 120.933L143.916 131.434C144.56 131.812 144.781 132.635 144.414 133.285C144.171 133.682 143.744 133.931 143.278 133.948L143.278 133.948Z" id="Shape" fill="#FFFFFF" stroke="none" />
      <path d="M82.5535 109.411C82.3159 109.415 82.0816 109.354 81.8772 109.232L51.5595 91.7382C50.9114 91.3646 50.6888 90.5364 51.0622 89.8882C51.4356 89.24 52.2637 89.0171 52.912 89.3904L83.2298 106.897C83.792 107.189 84.0764 107.832 83.9141 108.444C83.7519 109.056 83.1865 109.474 82.5535 109.449L82.5535 109.411Z" id="Shape" fill="#FFFFFF" stroke="none" />
      <path d="M169.87 159.838C169.631 159.839 169.397 159.773 169.194 159.647L124.368 133.795C123.72 133.422 123.497 132.593 123.871 131.945C124.244 131.297 125.072 131.074 125.721 131.447L170.508 157.312C171.07 157.604 171.355 158.247 171.192 158.859C171.03 159.471 170.465 159.889 169.832 159.864L169.87 159.838Z" id="Shape" fill="#FFFFFF" stroke="none" />
      <path d="M113.126 127.071C112.89 127.068 112.658 127.006 112.45 126.892L94.2544 116.378C93.8001 116.156 93.5078 115.698 93.4967 115.193C93.4857 114.687 93.7577 114.217 94.2018 113.975C94.646 113.733 95.188 113.759 95.607 114.043L113.803 124.544C114.448 124.921 114.665 125.75 114.288 126.395C114.06 126.822 113.61 127.084 113.127 127.071L113.126 127.071Z" id="Shape" fill="#FFFFFF" stroke="none" />
      <path d="M112.705 137.342C112.468 137.347 112.234 137.285 112.029 137.164L51.5595 102.252C50.9712 101.854 50.7911 101.069 51.1471 100.454C51.5032 99.8396 52.2741 99.6051 52.9121 99.9174L113.382 134.829C113.944 135.121 114.228 135.763 114.066 136.376C113.904 136.988 113.338 137.406 112.705 137.381L112.705 137.342Z" id="Shape" fill="#FFFFFF" stroke="none" />
      <path d="M164.919 167.494C164.683 167.491 164.45 167.43 164.243 167.316L152.312 160.425C151.858 160.203 151.566 159.746 151.555 159.24C151.544 158.734 151.816 158.265 152.26 158.023C152.704 157.781 153.246 157.807 153.665 158.09L165.596 164.968C166.158 165.26 166.442 165.903 166.28 166.515C166.118 167.127 165.552 167.545 164.919 167.52L164.919 167.494Z" id="Shape" fill="#FFFFFF" stroke="none" />
      <path d="M88.5123 133.91C88.2734 133.911 88.0391 133.844 87.8361 133.718L75.8799 126.841C75.2319 126.467 75.0092 125.639 75.3827 124.991C75.7561 124.343 76.5842 124.12 77.2325 124.493L89.1631 131.383C89.7253 131.675 90.0097 132.318 89.8474 132.93C89.6852 133.543 89.1198 133.96 88.4868 133.935L88.5123 133.91Z" id="Shape" fill="#FFFFFF" stroke="none" />
      <path d="M143.278 155.053C143.042 155.05 142.809 154.989 142.602 154.875L124.368 144.322C123.72 143.949 123.497 143.12 123.871 142.472C124.244 141.824 125.072 141.601 125.721 141.974L143.955 152.501C144.517 152.793 144.801 153.436 144.639 154.048C144.477 154.661 143.911 155.078 143.278 155.053L143.278 155.053Z" id="Shape" fill="#FFFFFF" stroke="none" />
      <path d="M71.6182 124.149C71.3805 124.153 71.1463 124.091 70.9419 123.97L51.5595 112.779C50.9007 112.406 50.6693 111.569 51.0425 110.91C51.4158 110.252 52.2525 110.02 52.9114 110.393L72.2945 121.571C72.8567 121.863 73.141 122.506 72.9788 123.118C72.8165 123.73 72.2511 124.148 71.6182 124.123L71.6182 124.149Z" id="Shape" fill="#FFFFFF" stroke="none" />
      <path d="M113.126 148.112C112.889 148.117 112.655 148.055 112.45 147.933L94.2544 137.432C93.6063 137.058 93.3837 136.23 93.7571 135.582C94.1305 134.934 94.9586 134.711 95.6069 135.084L113.803 145.598C114.365 145.89 114.649 146.533 114.487 147.145C114.325 147.757 113.759 148.175 113.126 148.15L113.126 148.112Z" id="Shape" fill="#FFFFFF" stroke="none" />
      <path d="M88.5124 154.071C88.2747 154.075 88.0405 154.014 87.8361 153.892L75.9055 147.002C75.4512 146.779 75.1589 146.322 75.1478 145.817C75.1368 145.311 75.4088 144.841 75.8529 144.599C76.2971 144.357 76.8391 144.383 77.2581 144.667L89.1887 151.557C89.7806 151.829 90.0909 152.488 89.924 153.118C89.7572 153.747 89.1614 154.166 88.5124 154.109L88.5124 154.071Z" id="Shape" fill="#FFFFFF" stroke="none" />
      <path d="M71.6182 144.322C71.3816 144.319 71.1493 144.258 70.9419 144.144L51.5595 132.953C50.9114 132.579 50.6888 131.751 51.0622 131.103C51.4356 130.455 52.2637 130.232 52.912 130.605L72.2945 141.796C72.8567 142.088 73.141 142.73 72.9788 143.343C72.8165 143.955 72.2511 144.373 71.6182 144.348L71.6182 144.322Z" id="Shape" fill="#FFFFFF" stroke="none" />
      <path d="M113.126 168.286C112.89 168.282 112.657 168.221 112.45 168.107L94.2544 157.605C93.6063 157.232 93.3837 156.404 93.7571 155.755C94.1305 155.107 94.9586 154.884 95.6069 155.258L113.803 165.759C114.447 166.136 114.665 166.964 114.288 167.609C114.06 168.037 113.61 168.299 113.126 168.286L113.126 168.286Z" id="Shape" fill="#FFFFFF" stroke="none" />
      <path d="M64.2047 51.4804L64.2047 100.402C64.2047 101.193 63.924 101.678 63.4774 101.895L63.4774 101.895L61.6017 102.929L61.6017 101.257L61.3337 50.9572L63.7836 49.6812C64.0575 50.2417 64.2014 50.8567 64.2047 51.4804L64.2047 51.4804Z" id="Shape" fill="#263238" stroke="none" />
      <path d="M63.7836 49.7197L61.3337 50.9957L2.01243 16.1737L0.596093 15.357L2.54837 14.2597L2.61216 14.2597L2.61216 14.2597C2.98373 14.0615 3.43641 14.0963 3.77332 14.349L62.4693 48.1502C63.0521 48.5329 63.5093 49.0788 63.7836 49.7197L63.7836 49.7197Z" id="Shape" fill="#37474F" stroke="none" />
      <path d="M62.0865 52.5393L62.0865 101.142C62.1404 101.67 61.9303 102.19 61.5251 102.533L61.4103 102.533C61.0506 102.678 60.6416 102.63 60.3256 102.405L2.01243 68.8083C0.925209 68.0334 0.271477 66.7874 0.25154 65.4524L0.25154 16.9262C0.197919 16.411 0.397761 15.9019 0.787477 15.5608C0.839268 15.5147 0.900131 15.48 0.966136 15.4588C1.31703 15.333 1.70713 15.3853 2.01247 15.5991L60.3256 49.1452C60.8911 49.5147 61.335 50.0429 61.6016 50.6636C61.9043 51.2437 62.0701 51.8853 62.0865 52.5393L62.0865 52.5393Z" id="Shape" fill="#455A64" stroke="none" />
      <g fill="#FAFAFA" stroke="none" id="" transform="matrix(-0.87 -0.5 0 1 53.230198 43.067368)">
        <path d="M9.72992 5.23761L3.68308 27.7025L0.320666 27.7025L6.36751 5.23761L9.72992 5.23761Z" />
      </g>
      <path d="M1.08104 15.5097C1.27145 15.5152 1.45677 15.5726 1.61697 15.6756L60.313 49.4768C60.8291 49.8188 61.2365 50.3014 61.4869 50.8677C61.7563 51.3933 61.9004 51.9741 61.908 52.5648L61.908 101.461C61.9683 101.871 61.8256 102.285 61.5252 102.571L61.4231 102.571C61.3393 102.592 61.2518 102.592 61.1679 102.571C60.9791 102.556 60.7961 102.5 60.6319 102.405L1.93597 68.5913C0.948522 67.8685 0.354135 66.7269 0.328201 65.5034L0.328201 16.7347C0.285094 16.32 0.430302 15.9079 0.723758 15.6118L0.838593 15.6118C0.914098 15.5939 0.992758 15.5939 1.06826 15.6118M1.06818 15.2801C0.944929 15.2795 0.823045 15.3056 0.710897 15.3566L0.532238 15.4587C0.148714 15.8088 -0.0455214 16.3204 0.00907312 16.8368L0.00907312 65.6183C0.0330604 66.9592 0.68504 68.2112 1.76996 68.9996L60.466 102.801C60.6741 102.928 60.9115 102.998 61.1551 103.005C61.2907 103.007 61.4253 102.981 61.5505 102.928L61.6654 102.865C62.0727 102.518 62.2828 101.993 62.2269 101.461L62.2269 52.5648C62.2109 51.9259 62.0541 51.2985 61.7675 50.7273C61.4936 50.1077 61.0516 49.5772 60.4915 49.1961L1.7955 15.3949C1.58421 15.2632 1.34243 15.1885 1.09372 15.178L1.06818 15.2801Z" id="Shape" fill="#37474F" fill-rule="evenodd" stroke="none" />
      <path d="M54.7751 16.773C54.7751 18.1639 53.7926 18.7253 52.5932 18.049C51.2867 17.2037 50.4728 15.7759 50.4112 14.221C50.4112 12.8302 51.381 12.2687 52.5932 12.945C53.8902 13.7993 54.701 15.2218 54.7751 16.773L54.7751 16.773Z" id="Shape" fill="#FFFFFF" stroke="none" />
      <path d="M62.8904 21.7749C62.8904 23.1657 61.9079 23.7399 60.6957 23.0509C59.3939 22.2011 58.5816 20.776 58.5137 19.2229C58.5137 17.8321 59.4962 17.2579 60.6957 17.9469C62.0023 18.7939 62.8196 20.2195 62.8904 21.7749L62.8904 21.7749Z" id="Shape" fill="#FFFFFF" stroke="none" />
      <path d="M70.993 26.79C70.993 28.1808 70.0232 28.7423 68.811 28.066C67.5141 27.2117 66.7032 25.7892 66.6291 24.238C66.6291 22.8471 67.6116 22.2857 68.811 22.962C70.1175 23.8073 70.9314 25.2351 70.993 26.79L70.993 26.79Z" id="Shape" fill="#FFFFFF" stroke="none" />
    </g>
  </g>
</svg>