<?xml version="1.0" encoding="utf-8"?>
<svg width="16px" height="16px" viewBox="0 0 16 16" version="1.1" xmlns:xlink="http://www.w3.org/1999/xlink" xmlns="http://www.w3.org/2000/svg">
  <defs>
    <path d="M0 0L16 0L16 16L0 16L0 0Z" id="path_1" />
    <clipPath id="mask_1">
      <use xlink:href="#path_1" />
    </clipPath>
  </defs>
  <g id="controller">
    <path d="M0 0L16 0L16 16L0 16L0 0Z" id="Background" fill="#FFFFFF" fill-opacity="0" fill-rule="evenodd" stroke="none" />
    <path d="M11.5 6.027C11.5 6.20563 11.4047 6.3707 11.25 6.46001C11.0953 6.54933 10.9047 6.54933 10.75 6.46001C10.5953 6.3707 10.5 6.20563 10.5 6.027C10.5 5.84837 10.5953 5.6833 10.75 5.59399C10.9047 5.50467 11.0953 5.50467 11.25 5.59399C11.4047 5.6833 11.5 5.84837 11.5 6.027L11.5 6.027ZM10 7.527C10.2761 7.527 10.5 7.30314 10.5 7.027C10.5 6.75086 10.2761 6.527 10 6.527C9.72386 6.527 9.5 6.75086 9.5 7.027C9.5 7.30314 9.72386 7.527 10 7.527L10 7.527ZM12.5 7.027C12.5 7.20563 12.4047 7.3707 12.25 7.46001C12.0953 7.54933 11.9047 7.54933 11.75 7.46001C11.5953 7.3707 11.5 7.20563 11.5 7.027C11.5 6.84837 11.5953 6.6833 11.75 6.59399C11.9047 6.50467 12.0953 6.50467 12.25 6.59399C12.4047 6.6833 12.5 6.84837 12.5 7.027L12.5 7.027ZM11 8.527C11.2761 8.527 11.5 8.30314 11.5 8.027C11.5 7.75086 11.2761 7.527 11 7.527C10.7239 7.527 10.5 7.75086 10.5 8.027C10.5 8.30314 10.7239 8.527 11 8.527L11 8.527ZM4.5 5.527L5.5 5.527L5.5 6.527L6.5 6.527L6.5 7.527L5.5 7.527L5.5 8.527L4.5 8.527L4.5 7.527L3.5 7.527L3.5 6.527L4.5 6.527L4.5 5.527L4.5 5.527Z" id="Shape" fill="#FFFFFF" fill-rule="evenodd" stroke="none" />
    <path d="M3.051 3.26C3.0165 3.13176 3.03444 2.99507 3.10085 2.88007C3.16726 2.76507 3.27669 2.68122 3.405 2.647L5.337 2.129C5.47126 2.09322 5.61436 2.11492 5.73198 2.18891C5.84959 2.26289 5.93112 2.38248 5.957 2.519C6.612 2.44 7.307 2.402 8 2.402C8.72 2.402 9.443 2.443 10.12 2.528C10.1436 2.38938 10.2246 2.26712 10.3429 2.19119C10.4613 2.11526 10.6061 2.09269 10.742 2.129L12.674 2.647C12.8234 2.68699 12.9459 2.79387 13.0057 2.93647C13.0656 3.07908 13.0561 3.24136 12.98 3.376C13.12 3.466 13.246 3.566 13.353 3.673C13.761 4.081 14.133 4.723 14.448 5.445C14.768 6.178 15.047 7.036 15.253 7.911C15.459 8.786 15.593 9.691 15.617 10.517C15.641 11.333 15.558 12.119 15.289 12.727C15.0374 13.2869 14.4544 13.6218 13.844 13.557C13.208 13.49 12.729 13.163 12.331 12.784C12.086 12.552 11.835 12.258 11.592 11.976C11.466 11.828 11.342 11.684 11.224 11.553C10.496 10.749 9.627 10.026 8 10.026C6.373 10.026 5.504 10.749 4.776 11.553C4.657 11.684 4.534 11.828 4.408 11.976C4.165 12.258 3.914 12.551 3.669 12.784C3.271 13.164 2.792 13.49 2.156 13.557C1.54556 13.6218 0.962631 13.2869 0.711001 12.727C0.441001 12.119 0.359001 11.332 0.382001 10.517C0.406001 9.691 0.542001 8.787 0.747001 7.911C0.953001 7.036 1.233 6.178 1.552 5.445C1.867 4.723 2.239 4.081 2.646 3.673C2.77673 3.54478 2.92206 3.43234 3.079 3.338C3.06749 3.31249 3.05812 3.28607 3.051 3.259L3.051 3.26ZM5.087 3.672C4.21 3.857 3.618 4.115 3.354 4.38C3.078 4.656 2.767 5.163 2.469 5.845C2.15286 6.58659 1.90256 7.35455 1.721 8.14001C1.52919 8.92891 1.41565 9.73481 1.382 10.546C1.36 11.301 1.444 11.914 1.625 12.322C1.701 12.4849 1.87227 12.5814 2.051 12.562C2.378 12.528 2.661 12.363 2.98 12.06C3.192 11.858 3.38 11.637 3.595 11.386C3.728 11.23 3.871 11.063 4.035 10.882C4.861 9.969 5.978 9.027 8 9.027C10.022 9.027 11.139 9.969 11.965 10.882C12.129 11.063 12.272 11.23 12.405 11.386C12.619 11.637 12.808 11.858 13.02 12.06C13.338 12.363 13.621 12.528 13.949 12.563C14.128 12.5823 14.2993 12.4853 14.375 12.322C14.555 11.914 14.64 11.302 14.618 10.546C14.5843 9.73481 14.4708 8.92891 14.279 8.14C14.0974 7.35455 13.8471 6.5866 13.531 5.845C13.233 5.163 12.921 4.655 12.646 4.38C12.382 4.115 11.79 3.857 10.913 3.672C10.063 3.493 9.036 3.402 8 3.402C6.964 3.402 5.937 3.493 5.087 3.672L5.087 3.672Z" id="Shape" fill="#FFFFFF" fill-rule="evenodd" stroke="none" />
  </g>
</svg>