<?xml version="1.0" encoding="utf-8"?>
<svg width="50px" height="50px" viewBox="0 0 50 50" version="1.1" xmlns:xlink="http://www.w3.org/1999/xlink" xmlns="http://www.w3.org/2000/svg">
  <defs>
    <path d="M0.00622559 0.00312424L50 0.00312424L50 49.9969L0.00622559 49.9969L0.00622559 0.00312424Z" id="path_1" />
    <clipPath id="mask_1">
      <use xlink:href="#path_1" />
    </clipPath>
  </defs>
  <g id="facebook">
    <path d="M0.00622559 0.00312424L50 0.00312424L50 49.9969L0.00622559 49.9969L0.00622559 0.00312424Z" id="Background" fill="#FFFFFF" fill-opacity="0" fill-rule="evenodd" stroke="none" />
    <path d="M50 25.1531C50 11.2611 38.8076 0 25.0031 0C11.1924 0.00312587 0 11.2611 0 25.1562C0 37.7078 9.14261 48.1127 21.0911 50L21.0911 32.4241L14.7482 32.4241L14.7482 25.1562L21.0974 25.1562L21.0974 19.6101C21.0974 13.3077 24.8313 9.8269 30.5399 9.8269C33.2771 9.8269 36.1361 10.3175 36.1361 10.3175L36.1361 16.5042L32.9834 16.5042C29.8806 16.5042 28.912 18.4446 28.912 20.4349L28.912 25.1531L35.8424 25.1531L34.7363 32.421L28.9089 32.421L28.9089 49.9969C40.8574 48.1096 50 37.7047 50 25.1531L50 25.1531Z" id="Shape" fill="#FFFFFF" stroke="none" />
  </g>
</svg>