<?xml version="1.0" encoding="utf-8"?>
<svg width="50px" height="50px" viewBox="0 0 50 50" version="1.1" xmlns:xlink="http://www.w3.org/1999/xlink" xmlns="http://www.w3.org/2000/svg">
  <defs>
    <path d="M0 0L50 0L50 50L0 50L0 0Z" id="path_1" />
    <clipPath id="mask_1">
      <use xlink:href="#path_1" />
    </clipPath>
  </defs>
  <g id="github">
    <path d="M0 0L50 0L50 50L0 50L0 0Z" id="Background" fill="#FFFFFF" fill-opacity="0" fill-rule="evenodd" stroke="none" />
    <path d="M25 0C11.1875 0 0 11.1875 0 25C0 36.0625 7.15625 45.4063 17.0938 48.7188C18.3438 48.9375 18.8125 48.1875 18.8125 47.5313C18.8125 46.9375 18.7813 44.9688 18.7813 42.875C12.5 44.0313 10.875 41.3438 10.375 39.9375C10.0937 39.2188 8.875 37 7.8125 36.4063C6.9375 35.9375 5.6875 34.7813 7.78125 34.75C9.75 34.7188 11.1562 36.5625 11.625 37.3125C13.875 41.0938 17.4687 40.0313 18.9063 39.375C19.125 37.75 19.7813 36.6563 20.5 36.0313C14.9375 35.4063 9.125 33.25 9.125 23.6875C9.125 20.9688 10.0937 18.7188 11.6875 16.9688C11.4375 16.3438 10.5625 13.7813 11.9375 10.3438C11.9375 10.3438 14.0312 9.6875 18.8125 12.9063C20.8125 12.3438 22.9375 12.0625 25.0625 12.0625C27.1875 12.0625 29.3125 12.3438 31.3125 12.9063C36.0937 9.65625 38.1875 10.3438 38.1875 10.3438C39.5625 13.7813 38.6875 16.3438 38.4375 16.9688C40.0313 18.7188 41 20.9375 41 23.6875C41 33.2813 35.1562 35.4063 29.5937 36.0313C30.5 36.8125 31.2812 38.3125 31.2812 40.6563C31.2812 44 31.25 46.6875 31.25 47.5313C31.25 48.1875 31.7187 48.9688 32.9687 48.7188C43.1457 45.2841 49.9982 35.741 50 25C50 11.1875 38.8125 0 25 0L25 0Z" id="Shape" fill="#FFFFFF" stroke="none" />
  </g>
</svg>