<?xml version="1.0" encoding="utf-8"?>
<svg width="50px" height="50px" viewBox="0 0 50 50" version="1.1" xmlns:xlink="http://www.w3.org/1999/xlink" xmlns="http://www.w3.org/2000/svg">
  <defs>
    <path d="M0 0.00164795L50 0.00164795L50 50L0 50L0 0.00164795Z" id="path_1" />
    <clipPath id="mask_1">
      <use xlink:href="#path_1" />
    </clipPath>
  </defs>
  <g id="google">
    <path d="M0 0.00164795L50 0.00164795L50 50L0 50L0 0.00164795Z" id="Background" fill="#FFFFFF" fill-opacity="0" fill-rule="evenodd" stroke="none" />
    <path d="M48.5781 20.4947C48.8696 22.1727 49.015 23.8727 49.0125 25.5758C49.0125 33.1818 46.2938 39.6128 41.5625 43.9658L41.5687 43.9658C37.4312 47.7876 31.7437 50 25 50C16.0684 50 7.81519 45.2352 3.34936 37.5004C-1.11645 29.7656 -1.11645 20.236 3.34936 12.5012C7.81519 4.76647 16.0684 0.00164944 25 0.00164944C31.2061 -0.0710271 37.1995 2.26043 41.725 6.50768L34.5875 13.6449C32.0074 11.1856 28.5641 9.8388 25 9.89507C18.4781 9.89507 12.9375 14.2949 10.9625 20.2197C9.91533 23.3243 9.91533 26.6867 10.9625 29.7913L10.9719 29.7913C12.9562 35.7067 18.4875 40.1066 25.0094 40.1066C28.3781 40.1066 31.2719 39.2441 33.5156 37.7192L33.5062 37.7192C36.139 35.9751 37.9442 33.2306 38.5031 30.1225L25 30.1225L25 20.4978L48.5781 20.4978L48.5781 20.4947Z" id="Shape" fill="#FFFFFF" stroke="none" />
  </g>
</svg>