<?xml version="1.0" encoding="utf-8"?>
<svg width="50px" height="50px" viewBox="0 0 50 50" version="1.1" xmlns:xlink="http://www.w3.org/1999/xlink" xmlns="http://www.w3.org/2000/svg">
  <g id="linkedin">
    <path d="M0 3.58125C0 1.60313 1.64375 0 3.67187 0L46.3281 0C48.3563 0 50 1.60313 50 3.58125L50 46.4188C50 48.3969 48.3563 50 46.3281 50L3.67187 50C1.64375 50 0 48.3969 0 46.4188L0 3.58125L0 3.58125ZM15.4468 41.8563L15.4468 19.2781L7.94373 19.2781L7.94373 41.8563L15.4468 41.8563L15.4468 41.8563ZM11.6969 16.1938C14.3125 16.1938 15.9406 14.4625 15.9406 12.2937C15.8937 10.0781 14.3156 8.39375 11.7469 8.39375C9.17812 8.39375 7.5 10.0812 7.5 12.2937C7.5 14.4625 9.12813 16.1938 11.6469 16.1938L11.6969 16.1938L11.6969 16.1938ZM27.0344 41.8562L27.0344 29.2469C27.0344 28.5719 27.0844 27.8969 27.2844 27.4156C27.8251 26.0688 29.0594 24.6719 31.1344 24.6719C33.8501 24.6719 34.9344 26.7406 34.9344 29.7781L34.9344 41.8562L42.4375 41.8562L42.4375 28.9063C42.4375 21.9688 38.7375 18.7438 33.8 18.7438C29.8188 18.7438 28.0344 20.9313 27.0344 22.4719L27.0344 22.55L26.9844 22.55C27.0009 22.5241 27.0175 22.4982 27.0341 22.4723L27.0344 19.2781L19.5344 19.2781C19.6282 21.3969 19.5344 41.8562 19.5344 41.8562L27.0344 41.8562L27.0344 41.8562Z" id="Shape" fill="#FFFFFF" fill-rule="evenodd" stroke="none" />
  </g>
</svg>