<?xml version="1.0" encoding="utf-8"?>
<svg width="16px" height="16px" viewBox="0 0 16 16" version="1.1" xmlns:xlink="http://www.w3.org/1999/xlink" xmlns="http://www.w3.org/2000/svg">
  <defs>
    <path d="M0 0L16 0L16 16L0 16L0 0Z" id="path_1" />
    <clipPath id="mask_1">
      <use xlink:href="#path_1" />
    </clipPath>
  </defs>
  <g id="person-lines-fill">
    <path d="M0 0L16 0L16 16L0 16L0 0Z" id="Background" fill="#FFFFFF" fill-opacity="0" fill-rule="evenodd" stroke="none" />
    <path d="M6 8C7.65685 8 9 6.65686 9 5.00001C9 3.34316 7.65687 2.00001 6.00002 2C4.34316 2 3.00002 3.34313 3.00001 4.99998C3 6.65684 4.34313 7.99999 5.99998 8L6 8ZM1 14C1 14 0 14 0 13C0 12 1 9 6 9C11 9 12 12 12 13C12 14 11 14 11 14L1 14L1 14ZM11 3.5C11 3.22386 11.2239 3 11.5 3L15.5 3C15.6786 3 15.8437 3.0953 15.933 3.25C16.0223 3.4047 16.0223 3.5953 15.933 3.75C15.8437 3.9047 15.6786 4 15.5 4L11.5 4C11.2239 4 11 3.77614 11 3.5L11 3.5ZM11.5 6C11.2239 6 11 6.22386 11 6.5C11 6.77614 11.2239 7 11.5 7L15.5 7C15.7761 7 16 6.77614 16 6.5C16 6.22386 15.7761 6 15.5 6L11.5 6L11.5 6ZM13.5 9C13.2239 9 13 9.22386 13 9.5C13 9.77614 13.2239 10 13.5 10L15.5 10C15.7761 10 16 9.77614 16 9.5C16 9.22386 15.7761 9 15.5 9L13.5 9L13.5 9ZM13.5 12C13.2239 12 13 12.2239 13 12.5C13 12.7761 13.2239 13 13.5 13L15.5 13C15.7761 13 16 12.7761 16 12.5C16 12.2239 15.7761 12 15.5 12L13.5 12L13.5 12Z" id="Shape" fill="#FFFFFF" fill-rule="evenodd" stroke="none" />
  </g>
</svg>